<?xml version="1.0" standalone="no"?>
<!DOCTYPE svg PUBLIC "-//W3C//DTD SVG 20010904//EN"
 "http://www.w3.org/TR/2001/REC-SVG-20010904/DTD/svg10.dtd">
<svg version="1.0" xmlns="http://www.w3.org/2000/svg"
 width="120pt" height="20pt" viewBox="0 0 1201.000000 218.000000"
 preserveAspectRatio="xMidYMid meet">

<g transform="translate(0.000000,218.000000) scale(0.100000,-0.100000)"
fill="#000000" stroke="none">
<path d="M1910 1810 l0 -70 85 0 85 0 0 -135 c0 -74 -3 -135 -8 -135 -4 0 -39
7 -77 15 -89 19 -211 19 -300 0 -178 -38 -293 -142 -347 -315 -19 -63 -23 -95
-22 -205 2 -248 70 -395 214 -459 197 -89 419 -47 531 100 26 33 27 34 32 12
3 -13 9 -49 12 -80 l7 -58 134 0 134 0 0 70 0 70 -69 0 -69 0 -7 38 c-4 20 -9
304 -12 630 l-4 592 -160 0 -159 0 0 -70z m65 -466 c33 -8 70 -22 83 -30 l23
-15 -3 -242 c-3 -221 -5 -246 -24 -288 -28 -60 -78 -115 -128 -142 -57 -30
-211 -32 -271 -2 -59 29 -110 86 -136 151 -20 51 -23 77 -24 194 0 160 14 214
77 285 43 49 94 80 155 94 61 14 184 12 248 -5z"/>
<path d="M5000 1810 l0 -70 315 0 315 0 0 -412 c0 -317 -4 -429 -14 -479 -33
-155 -115 -234 -254 -246 -90 -7 -165 10 -245 57 l-67 39 -35 -63 c-19 -35
-35 -65 -35 -68 0 -12 76 -50 149 -76 65 -22 93 -26 196 -26 92 -1 133 3 175
18 148 50 234 146 277 308 14 54 17 140 20 576 l4 512 -400 0 -401 0 0 -70z"/>
<path d="M567 1432 c-450 -276 -467 -288 -467 -317 1 -29 17 -39 472 -302
l472 -273 37 58 c27 42 34 60 25 68 -6 6 -184 111 -395 234 -357 208 -383 225
-364 237 12 8 187 112 389 233 203 120 369 224 369 232 0 15 -57 118 -65 117
-3 0 -215 -130 -473 -287z"/>
<path d="M10945 1667 c-16 -28 -30 -58 -30 -65 0 -8 166 -113 370 -233 203
-121 378 -225 389 -232 17 -12 -19 -35 -365 -237 -211 -123 -389 -228 -396
-234 -8 -8 -2 -25 26 -68 l37 -58 472 273 c455 263 471 273 472 302 0 29 -17
40 -466 315 -257 157 -470 286 -473 287 -3 2 -19 -21 -36 -50z"/>
<path d="M2904 1486 c-239 -55 -364 -229 -364 -506 0 -278 126 -456 357 -505
166 -35 382 4 520 95 l52 34 -30 57 -31 57 -45 -28 c-25 -16 -82 -42 -127 -57
-69 -24 -97 -28 -186 -28 -94 0 -111 3 -168 29 -105 49 -166 135 -178 255 l-7
61 386 0 386 0 6 34 c9 48 -12 207 -36 272 -39 105 -125 190 -222 219 -73 23
-237 28 -313 11z m284 -161 c75 -41 120 -105 136 -197 l7 -38 -311 0 -310 0 0
28 c1 39 36 111 73 150 64 67 143 93 272 88 66 -2 89 -7 133 -31z"/>
<path d="M6504 1486 c-239 -55 -364 -229 -364 -506 0 -278 126 -456 357 -505
166 -35 382 4 520 95 l52 34 -30 57 -31 57 -45 -28 c-25 -16 -82 -42 -127 -57
-69 -24 -97 -28 -186 -28 -94 0 -111 3 -168 29 -105 49 -166 135 -178 255 l-7
61 386 0 386 0 6 34 c9 48 -12 207 -36 272 -39 105 -125 190 -222 219 -73 23
-237 28 -313 11z m284 -161 c75 -41 120 -105 136 -197 l7 -38 -311 0 -310 0 0
28 c1 39 36 111 73 150 64 67 143 93 272 88 66 -2 89 -7 133 -31z"/>
<path d="M7673 1485 c-120 -27 -220 -103 -243 -184 -15 -54 -12 -136 6 -181
20 -50 84 -101 162 -130 30 -12 120 -36 199 -55 157 -38 244 -74 270 -114 23
-35 21 -105 -4 -139 -11 -14 -42 -38 -69 -51 -44 -23 -61 -25 -164 -25 -133 0
-202 19 -308 85 -35 21 -65 39 -66 39 -2 0 -20 -28 -41 -61 l-38 -62 24 -19
c13 -10 56 -34 94 -52 233 -114 526 -97 660 38 112 112 115 289 7 374 -72 57
-129 78 -329 122 -162 35 -235 67 -253 110 -17 41 -4 84 35 119 51 44 97 56
220 56 109 -1 111 -1 213 -47 l103 -46 29 59 c17 32 30 61 30 64 0 10 -116 63
-185 85 -90 28 -263 36 -352 15z"/>
<path d="M8873 1485 c-120 -27 -220 -103 -243 -184 -15 -54 -12 -136 6 -181
20 -50 84 -101 162 -130 30 -12 120 -36 199 -55 157 -38 244 -74 270 -114 23
-35 21 -105 -4 -139 -11 -14 -42 -38 -69 -51 -44 -23 -61 -25 -164 -25 -133 0
-202 19 -308 85 -35 21 -65 39 -66 39 -2 0 -20 -28 -41 -61 l-38 -62 24 -19
c13 -10 56 -34 94 -52 233 -114 526 -97 660 38 112 112 115 289 7 374 -72 57
-129 78 -329 122 -162 35 -235 67 -253 110 -17 41 -4 84 35 119 51 44 97 56
220 56 109 -1 111 -1 213 -47 l103 -46 29 59 c17 32 30 61 30 64 0 10 -116 63
-185 85 -90 28 -263 36 -352 15z"/>
<path d="M10104 1486 c-239 -55 -364 -229 -364 -506 0 -278 126 -456 357 -505
166 -35 382 4 520 95 l52 34 -30 57 -31 57 -45 -28 c-25 -16 -82 -42 -127 -57
-69 -24 -97 -28 -186 -28 -94 0 -111 3 -168 29 -105 49 -166 135 -178 255 l-7
61 386 0 386 0 6 34 c9 48 -12 207 -36 272 -39 105 -125 190 -222 219 -73 23
-237 28 -313 11z m284 -161 c75 -41 120 -105 136 -197 l7 -38 -311 0 -310 0 0
28 c1 39 36 111 73 150 64 67 143 93 272 88 66 -2 89 -7 133 -31z"/>
<path d="M3704 1463 c4 -10 100 -235 214 -501 l207 -482 89 2 90 3 207 490
c114 270 208 494 208 498 1 4 -38 6 -85 5 l-86 -3 -153 -394 c-144 -369 -172
-431 -181 -406 -3 6 -78 188 -168 405 l-164 395 -92 3 c-85 3 -92 1 -86 -15z"/>
</g>
</svg>
